<?xml version="1.0" encoding="UTF-8"?> <svg xmlns="http://www.w3.org/2000/svg" width="513" height="513" viewBox="0 0 513 513" fill="none"><rect x="0.112793" y="0.523804" width="43.1025" height="512" fill="#B80000"></rect><rect x="70.438" y="0.523804" width="43.1025" height="512" fill="#B80000"></rect><path d="M154.375 63.3602V175.069H202.014V95.942C209.91 66.057 217.695 54.4649 241.714 49.3965H422.064C431.118 54.205 436.367 59.5515 445.884 71.5056C461.087 103.483 465.654 125.881 456.092 175.069C449.637 200.568 426.494 218.215 368.753 253.033L276.876 311.215C241.581 341.468 214.461 356.471 214.491 396.16V440.378H495.792V396.16H276.876C274.763 367.15 336.129 335.375 459.495 253.033C478.398 238.813 486.762 230.261 495.792 213.469C526.753 147.253 506.001 71.5056 495.792 49.3965C485.584 27.2874 468.346 7.34673 445.884 0.523804H228.103C195.125 9.34235 169.722 24.5212 154.375 63.3602Z" fill="#B80000"></path><path d="M229.237 104.087V175.069H272.339V130.851C275.574 124.136 278.616 122.685 284.816 121.542H383.499C397.039 142.097 391.515 153.853 367.619 175.069L229.237 266.996C174.374 309.017 158.474 329.428 140.763 363.578V512.524H496.926V468.306H186.134V370.56C196.926 345.605 212.571 327.976 272.339 284.451C346.192 236.072 390.268 208.043 418.661 175.069C426.471 164.951 429.38 154.531 428.87 121.542C425.186 96.0242 420.53 86.3153 406.184 79.6511H254.191C239.266 85.3015 232.773 89.8777 229.237 104.087Z" fill="#B80000"></path></svg> 